<svg xmlns="http://www.w3.org/2000/svg" viewBox="0 0 48 48" width="48" height="48">
  <rect width="48" height="48" rx="10" fill="#242938"/>
  <g transform="translate(9,4) scale(1.333)" fill="#ffffff">
    <path d="M2.846 6.887c.028-.325-.09-.65-.325-.876L.214 3.439V3h6.251l4.833 10.591L15.614 3h5.96v.439L19.925 5.07a.73.73 0 00-.278.7v17.61a.73.73 0 00.278.7l1.6 1.632v.438h-8.05v-.438l1.658-1.632c.163-.163.163-.21.163-.7V8.525l-4.607 11.688h-.789L4.338 8.525v7.835c-.044.503.142 1.002.506 1.365l2.158 2.617v.438H0v-.438l2.158-2.617c.36-.363.54-.864.488-1.365z"/>
  </g>
</svg>
