<svg xmlns="http://www.w3.org/2000/svg" viewBox="0 0 48 48" width="48" height="48">
  <rect width="48" height="48" rx="10" fill="#242938"/>
  <g transform="translate(2.79,11.2) scale(0.1561)">
    <polygon points="43.162,98.013 39.167,126.786 14.155,101.821 43.162,98.013" fill="#7929d2"/>
    <polygon points="87.948,115.889 108.213,134.914 72.257,139.174 87.948,115.889" fill="#9454db"/>
    <polygon points="72.257,139.174 39.167,126.786 46.839,152.801 72.257,139.174" fill="#7929d2"/>
    <polygon points="139.235,121.816 108.213,134.914 134.589,148.235 139.235,121.816" fill="#9454db"/>
    <polygon points="174.116,11.275 257.609,11.275 220.898,46.688 174.116,11.275" fill="#00aeff"/>
    <polygon points="257.609,95.332 257.609,11.275 220.898,46.688 257.609,95.332" fill="#0070c5"/>
    <polygon points="139.235,121.815 174.116,11.275 220.898,46.688 139.235,121.815" fill="#0070c5"/>
    <polygon points="139.235,121.815 220.898,46.688 257.609,95.332 139.235,121.815" fill="#00aeff"/>
  </g>
</svg>
