<svg xmlns="http://www.w3.org/2000/svg" viewBox="0 0 48 48" width="48" height="48">
  <rect width="48" height="48" rx="10" fill="#242938"/>
  <defs>
    <linearGradient id="g4" x1="0" y1="0" x2="1" y2="0">
      <stop offset="0" stop-color="#7929d2"/>
      <stop offset="1" stop-color="#0070c5"/>
    </linearGradient>
    <linearGradient id="g5" x1="0" y1="0" x2="0" y2="1">
      <stop offset="0" stop-color="#00aeff"/>
      <stop offset="1" stop-color="#9454db"/>
    </linearGradient>
    <linearGradient id="g6" x1="0" y1="0" x2="1" y2="1">
      <stop offset="0" stop-color="#66a9dc"/>
      <stop offset="1" stop-color="#b1e4fa"/>
    </linearGradient>
    <linearGradient id="g7" x1="0" y1="0" x2="0" y2="1">
      <stop offset="0" stop-color="#b1e4fa"/>
      <stop offset="1" stop-color="#66a9dc"/>
    </linearGradient>
  </defs>
  <g transform="translate(3.67,11.72) scale(0.15206)">
    <polygon points="105.31,135.046 132.385,148.72 137.154,121.601" fill="#7929d2"/>
    <polygon points="34.434,126.703 42.309,153.408 68.401,139.419" fill="#9454db"/>
    <polygon points="105.31,135.046 68.401,139.419 84.508,115.518" fill="#af7fe4"/>
    <polygon points="34.434,126.703 8.759,101.076 38.535,97.167" fill="#af7fe4"/>
    <polygon points="220.982,44.482 258.666,94.416 137.154,121.601" fill="url(#g4)"/>
    <polygon points="172.959,8.13 220.982,44.482 137.154,121.601" fill="url(#g5)"/>
    <polygon points="258.666,8.13 220.982,44.482 172.959,8.13" fill="url(#g6)"/>
    <polygon points="258.666,8.13 220.982,44.482 258.666,94.416" fill="url(#g7)"/>
  </g>
</svg>
